<svg width="2000" height="2000" xmlns="http://www.w3.org/2000/svg">

 <g>
  <title>Layer 1</title>
  <g id="svg_3" transform="matrix(3.80263 0 0 4.15496 241.518 259.565)" class="icon">
   <svg y="0" x="0" height="366.03711" width="394.5416" viewBox="0.00072479248046875 0.004812657833099365 394.5415954589844 366.037109375" data-name="鍥惧眰 1" id="svg_1" xmlns:xlink="http://www.w3.org/1999/xlink" xmlns="http://www.w3.org/2000/svg">

    <path id="svg_4" fill="#23B46B" d="m44.54,285.23c0.9,-35.4 -8.3,-68.6 -21.5,-100.9c-3.4,-8.3 -8.8,-15.6 -13,-23.6c-7,-13.2 -11.1,-26.9 -9.8,-42.2c2.7,-31.8 31.8,-52.8 62.6,-44.7c3.9,1 7.7,2.2 11.5,3.4c15.5,4.9 30.2,3 44.4,-4.6c13.8,-7.4 26.8,-16.1 40.3,-24.1c23.7,-14.1 47,-29.1 72.5,-40.1c10.1,-4.4 20.7,-7.6 31.8,-8.3c18.9,-1.2 33.8,6.2 41.7,23.3c9.6,20.7 17.3,42.3 16.5,65.8c-0.6,16.7 6.9,27.9 22.4,34.1c5.9,2.3 11.6,5 17.4,7.6c22.7,10 33.2,27.6 33.2,52.1a110.24,110.24 0 0 1 -12.6,51.9c-7.8,14.9 -15.6,29.8 -24.5,44.1c-6.9,11.1 -10.8,23.6 -17.1,35c-8.6,15.7 -18.1,30.8 -33.1,41.3c-15.5,10.9 -29.1,11.7 -43.7,0.1c-16.4,-13 -34,-15.2 -53.6,-10.9c-14.2,3.1 -27.8,8.2 -41.7,12.1a246.3,246.3 0 0 1 -61.6,9.4c-21,0.4 -36.3,-9.3 -48.1,-25.6c-8.7,-12.1 -12.8,-25.9 -13.7,-40.7a140.35,140.35 0 0 1 -0.3,-14.5z" class="mgnl8if19h8jkqd7cls-1"/>
   </svg>
  </g>
 </g>
</svg>